<svg width="23" height="23" viewBox="0 0 23 23" fill="none" xmlns="http://www.w3.org/2000/svg">
<path d="M18.2167 9.90664L13.5358 6.1715C13.408 5.42296 12.8765 4.81078 12.1739 4.56754V1.3488H20.9781V0.000976562H2.02183V1.3488H10.8261V4.5675C10.1234 4.81078 9.59193 5.42292 9.4642 6.17145L4.78321 9.90659H0V23.0001H23V9.90664H18.2167ZM4.24232 19.7538H2.8945V13.1529H4.24232V19.7538ZM6.88617 19.7538H5.53835V13.1529H6.88617V19.7538ZM9.53002 19.7538H8.18219V13.1529H9.53002V19.7538ZM12.1739 19.7538H10.8261V13.1529H12.1739V19.7538ZM14.8178 19.7538H13.4699V13.1529H14.8178V19.7538ZM6.94413 9.90664L9.77213 7.65006C10.1416 8.21287 10.7779 8.58554 11.5 8.58554C12.222 8.58554 12.8584 8.21287 13.2278 7.65006L16.0558 9.90664H6.94413ZM17.4616 19.7538H16.1138V13.1529H17.4616V19.7538ZM20.1055 19.7538H18.7577V13.1529H20.1055V19.7538Z" fill="white"/>
</svg>
