<svg width="26" height="24" viewBox="0 0 26 24" fill="none" xmlns="http://www.w3.org/2000/svg">
<path d="M5.20001 6.85721C6.15711 6.85721 6.97401 6.52252 7.65094 5.85284C8.32811 5.18322 8.66671 4.37507 8.66671 3.42868C8.66671 2.48238 8.32811 1.67423 7.65094 1.00451C6.97401 0.334884 6.15706 0 5.20001 0C4.243 0 3.42605 0.334884 2.74898 1.00451C2.07196 1.67423 1.73335 2.48219 1.73335 3.42868C1.73335 4.37526 2.07196 5.18322 2.74898 5.85284C3.42605 6.52233 4.243 6.85721 5.20001 6.85721Z" fill="white"/>
<path d="M9.32339 12.208C10.339 13.2121 11.5644 13.7144 13 13.7144C14.4357 13.7144 15.661 13.2121 16.6766 12.208C17.6921 11.2032 18.1999 9.99115 18.1999 8.57159C18.1999 7.15194 17.6921 5.93995 16.6766 4.93544C15.661 3.93093 14.4357 3.42867 13 3.42867C11.5644 3.42867 10.3389 3.93102 9.32339 4.93544C8.30785 5.93981 7.79992 7.1518 7.79992 8.57159C7.79992 9.99139 8.30785 11.2033 9.32339 12.208Z" fill="white"/>
<path d="M20.8004 6.85721C21.757 6.85721 22.5741 6.52252 23.2512 5.85284C23.9282 5.18322 24.2666 4.37507 24.2666 3.42868C24.2666 2.48238 23.9282 1.67423 23.2512 1.00451C22.5742 0.334884 21.757 0 20.8004 0C19.843 0 19.0261 0.334884 18.3491 1.00451C17.6722 1.67423 17.3336 2.48219 17.3336 3.42868C17.3336 4.37526 17.6722 5.18322 18.3491 5.85284C19.0261 6.52233 19.843 6.85721 20.8004 6.85721Z" fill="white"/>
<path d="M24.3207 6.8574C24.2668 6.8574 24.0704 6.95117 23.7318 7.13867C23.3935 7.32626 22.9532 7.51601 22.4117 7.708C21.8702 7.89982 21.3328 7.99584 20.8004 7.99584C20.1952 7.99584 19.5953 7.89325 18.9993 7.68779C19.0441 8.01798 19.0668 8.31271 19.0668 8.57165C19.0668 9.81272 18.7011 10.9555 17.9696 12.0002C19.4324 12.045 20.6283 12.6163 21.5585 13.7148H23.3731C24.1132 13.7148 24.7362 13.5336 25.2416 13.1721C25.7471 12.8107 26 12.2815 26 11.5851C26.0001 8.43312 25.4406 6.85721 24.3207 6.8574Z" fill="white"/>
<path d="M22.297 17.6853C22.2021 17.163 22.0824 16.6785 21.9379 16.2322C21.7934 15.7856 21.5993 15.3506 21.3559 14.9264C21.112 14.5027 20.8321 14.1408 20.5161 13.8416C20.1999 13.5423 19.8139 13.3038 19.3581 13.125C18.9023 12.9464 18.3988 12.8572 17.8482 12.8572C17.7578 12.8572 17.5638 12.9532 17.2659 13.1452C16.9679 13.3371 16.6387 13.5517 16.2774 13.788C15.9162 14.0243 15.4336 14.2387 14.8284 14.4307C14.2231 14.6227 13.6138 14.7188 13.0002 14.7188C12.3864 14.7188 11.7769 14.6227 11.172 14.4307C10.567 14.2387 10.0842 14.0243 9.72304 13.788C9.36181 13.5517 9.03241 13.3371 8.73454 13.1452C8.43653 12.9532 8.24254 12.8572 8.15214 12.8572C7.60152 12.8572 7.09823 12.9464 6.64228 13.125C6.18633 13.3038 5.80044 13.5423 5.4845 13.8416C5.16828 14.1405 4.88868 14.5027 4.64474 14.9264C4.40109 15.3506 4.207 15.7856 4.06253 16.2322C3.9181 16.6785 3.79862 17.163 3.70367 17.6853C3.60881 18.2077 3.54568 18.6941 3.51409 19.1452C3.48245 19.5961 3.46671 20.0583 3.46671 20.5315C3.46671 21.6028 3.79611 22.4489 4.45511 23.0692C5.11435 23.6895 5.99011 24 7.08225 24H18.9179C20.0101 24 20.8857 23.6895 21.5451 23.0692C22.2041 22.4489 22.5336 21.6028 22.5336 20.5315C22.5336 20.0583 22.5177 19.5963 22.4866 19.1452C22.4545 18.6941 22.3914 18.2077 22.297 17.6853Z" fill="white"/>
<path d="M8.03015 12.0001C7.29886 10.9555 6.93331 9.81266 6.93346 8.57159C6.93346 8.31265 6.95608 8.01811 7.00114 7.68773C6.40522 7.89305 5.80489 7.99578 5.20001 7.99578C4.66736 7.99578 4.13035 7.89981 3.5886 7.70795C3.04709 7.51595 2.60683 7.3262 2.26842 7.13862C1.92986 6.95112 1.73335 6.85735 1.67923 6.85735C0.559729 6.8574 0 8.4333 0 11.5851C0 12.2814 0.252805 12.8107 0.758273 13.172C1.26388 13.5335 1.88684 13.7144 2.6269 13.7144H4.44159C5.37157 12.6162 6.56758 12.0449 8.03015 12.0001Z" fill="white"/>
</svg>
