<svg width="18" height="18" viewBox="0 0 18 18" fill="none" xmlns="http://www.w3.org/2000/svg">
<path d="M17.3916 3.54538L11.9377 8.99988L17.3916 14.4541C18.2028 15.2657 18.2028 16.5803 17.3916 17.3918C16.9862 17.7972 16.4548 18 15.9236 18C15.3916 18 14.8601 17.7975 14.4551 17.3918L9.00003 11.937L3.54536 17.3918C3.14007 17.7971 2.6086 17.9999 2.07697 17.9999C1.5455 17.9999 1.01438 17.7974 0.608738 17.3918C-0.202501 16.5806 -0.202501 15.2659 0.608739 14.4541L6.06248 8.99983L0.60843 3.54538C-0.20281 2.73413 -0.20281 1.41921 0.60843 0.607969C1.41951 -0.202656 2.73365 -0.202656 3.54505 0.607969L8.99997 6.06247L14.4545 0.607969C15.266 -0.202656 16.5803 -0.202656 17.3913 0.607969C18.2028 1.41921 18.2028 2.73413 17.3916 3.54538Z" fill="#D73E3E"/>
</svg>
