<svg width="18" height="12" viewBox="0 0 18 12" fill="none" xmlns="http://www.w3.org/2000/svg">
<g clip-path="url(#clip0)">
<path d="M9 0.635254C5.56091 0.635254 2.44216 2.51681 0.140841 5.57297C-0.0469469 5.82335 -0.0469469 6.17315 0.140841 6.42353C2.44216 9.48337 5.56091 11.3649 9 11.3649C12.4391 11.3649 15.5578 9.48337 17.8592 6.42721C18.0469 6.17683 18.0469 5.82703 17.8592 5.57665C15.5578 2.51681 12.4391 0.635254 9 0.635254ZM9.2467 9.77794C6.96379 9.92154 5.07855 8.03998 5.22215 5.75339C5.33998 3.86815 6.86806 2.34007 8.7533 2.22224C11.0362 2.07864 12.9214 3.9602 12.7778 6.24679C12.6563 8.12835 11.1283 9.65643 9.2467 9.77794ZM9.13256 8.03262C7.90273 8.10994 6.88647 7.09736 6.96747 5.86753C7.03007 4.85127 7.85486 4.03016 8.87113 3.96388C10.101 3.88656 11.1172 4.89914 11.0362 6.12896C10.9699 7.14891 10.1451 7.97002 9.13256 8.03262Z" fill="black"/>
</g>
<defs>
<clipPath id="clip0">
<rect width="18" height="12" fill="white"/>
</clipPath>
</defs>
</svg>
