<svg width="17" height="21" viewBox="0 0 17 21" fill="none" xmlns="http://www.w3.org/2000/svg">
<path d="M5.5957 19.1057C6.08866 20.2202 7.20428 21.0001 8.49923 21.0001C9.79417 21.0001 10.9098 20.2202 11.4028 19.1057H5.5957Z" fill="#F9F9F9"/>
<path d="M8.49955 2.00635C9.35409 2.00635 10.1746 2.15712 10.936 2.43316V2.33937C10.936 1.04943 9.88661 0 8.59671 0H8.40284C7.11291 0 6.06348 1.04943 6.06348 2.33937V2.43197C6.8245 2.15675 7.64477 2.00635 8.49955 2.00635Z" fill="#F9F9F9"/>
<path d="M16.1893 17.873H0.810233C0.519281 17.873 0.252774 17.6768 0.192258 17.3921C0.132358 17.1104 0.260785 16.8322 0.521335 16.7118C0.583166 16.6717 1.04856 16.3463 1.51448 15.3618C2.37021 13.5537 2.54983 11.0067 2.54983 9.18846C2.54983 5.90775 5.21889 3.23877 8.49956 3.23877C11.7725 3.23877 14.4366 5.89489 14.4492 9.16484C14.4495 9.17268 14.4497 9.18057 14.4497 9.18846C14.4497 11.0067 14.6293 13.5537 15.485 15.3618C15.951 16.3463 16.4163 16.6718 16.4782 16.7118C16.7387 16.8322 16.8672 17.1103 16.8073 17.3921C16.7468 17.6767 16.4803 17.873 16.1893 17.873ZM16.4851 16.7162H16.4855H16.4851Z" fill="#F9F9F9"/>
</svg>
