<svg width="24" height="24" viewBox="0 0 24 24" xmlns="http://www.w3.org/2000/svg">
<path d="M23.8753 9.92984C23.7916 9.82027 23.6825 9.75509 23.5472 9.7344L20.6877 9.29701C20.5315 8.79696 20.318 8.28667 20.0472 7.76571C20.2345 7.50531 20.5156 7.13819 20.8905 6.66408C21.2655 6.19007 21.531 5.84386 21.6874 5.625C21.7708 5.5104 21.8122 5.39071 21.8122 5.2656C21.8122 5.11985 21.776 5.00536 21.7028 4.9219C21.328 4.3906 20.4686 3.50525 19.1248 2.2656C19.0003 2.16145 18.8697 2.1094 18.7345 2.1094C18.5781 2.1094 18.4532 2.1562 18.3593 2.24989L16.1407 3.92179C15.7135 3.70293 15.2447 3.51023 14.7346 3.34359L14.2971 0.46875C14.2866 0.333352 14.2266 0.221322 14.1173 0.132771C14.0078 0.0441112 13.8804 0 13.7343 0H10.2657C9.96355 0 9.776 0.145742 9.70315 0.437445C9.5677 0.958078 9.41659 1.92683 9.25 3.34353C8.76034 3.50005 8.28639 3.69795 7.8281 3.9375L5.67185 2.2656C5.53645 2.16145 5.40105 2.1094 5.26565 2.1094C5.0365 2.1094 4.54438 2.48178 3.78913 3.22658C3.03388 3.97154 2.52112 4.53136 2.25005 4.9062C2.15625 5.04159 2.10951 5.16145 2.10951 5.2656C2.10951 5.39071 2.1615 5.51571 2.26565 5.64054C2.9635 6.48446 3.52091 7.20299 3.93761 7.79701C3.67716 8.2761 3.47406 8.75536 3.32837 9.23446L0.422012 9.67185C0.307465 9.69275 0.20857 9.76056 0.125164 9.87516C0.0415937 9.98966 0 10.1096 0 10.2343V13.7032C0 13.8388 0.0415937 13.9609 0.125 14.0703C0.208406 14.1797 0.317699 14.2452 0.453152 14.2658L3.31272 14.6878C3.45846 15.1981 3.67196 15.7135 3.95326 16.2342C3.76587 16.4948 3.48462 16.8619 3.10962 17.3359C2.73468 17.8101 2.4688 18.1562 2.31272 18.3749C2.22926 18.49 2.18766 18.6095 2.18766 18.7345C2.18766 18.8697 2.22411 18.9894 2.29696 19.0936C2.70321 19.6564 3.56255 20.5314 4.87516 21.7189C4.98982 21.8335 5.12007 21.8906 5.26576 21.8906C5.42212 21.8906 5.55232 21.844 5.65641 21.7503L7.85973 20.0782C8.28705 20.297 8.75569 20.4897 9.26609 20.6566L9.70353 23.5314C9.7141 23.6666 9.77397 23.7787 9.88321 23.8674C9.9925 23.9562 10.1202 24.0001 10.266 24.0001H13.7347C14.0374 24.0001 14.2247 23.8544 14.2977 23.5626C14.433 23.0419 14.5839 22.0732 14.7505 20.6566C15.2401 20.5002 15.7142 20.3022 16.1724 20.0625L18.3289 21.7503C18.4746 21.844 18.6102 21.8906 18.7349 21.8906C18.964 21.8906 19.4536 21.5211 20.2035 20.7812C20.9538 20.0418 21.4694 19.4793 21.7503 19.0936C21.844 18.9895 21.8909 18.8697 21.8909 18.7345C21.8909 18.5989 21.8391 18.4684 21.7346 18.3438C20.9849 17.4269 20.4275 16.7084 20.0628 16.1874C20.2711 15.8019 20.4743 15.3281 20.6723 14.7655L23.5629 14.3284C23.6876 14.3074 23.7921 14.2396 23.8753 14.125C23.9586 14.0102 24 13.8903 24 13.7654V10.2969C24.0003 10.1615 23.9589 10.0393 23.8753 9.92984ZM14.8285 14.8281C14.0474 15.6095 13.1047 16.0002 12.0003 16.0002C10.8961 16.0002 9.95342 15.6095 9.17207 14.8281C8.39098 14.0471 8.00027 13.1043 8.00027 12.0001C8.00027 10.8959 8.39076 9.95321 9.17207 9.17185C9.95342 8.39076 10.8962 8.00005 12.0003 8.00005C13.1047 8.00005 14.0475 8.39076 14.8285 9.17185C15.6097 9.95321 16.0004 10.8959 16.0004 12.0001C16.0004 13.1043 15.6097 14.0471 14.8285 14.8281Z" />
</svg>
