<svg width="27" height="27" viewBox="0 0 27 27" xmlns="http://www.w3.org/2000/svg">
<path d="M26.4467 10.8325C26.279 9.35585 22.3032 10.8325 22.3032 10.8325L22.069 12.9336C21.9822 12.884 21.8941 12.8357 21.8014 12.7946L20.7972 8.41296C20.4292 6.32685 18.8547 4.79017 16.5597 4.86912H10.6629C10.627 5.11382 10.5696 5.35068 10.4985 5.58233H16.9578C18.2974 5.58233 19.5248 6.44431 19.8602 7.86745L20.9388 12.1937C20.8709 12.1917 20.8037 12.1852 20.7352 12.1852H8.229L8.23227 16.4024H15.9796V17.3453H8.23292L8.23357 17.6207H15.9013V18.5655H8.23357L8.23618 22.1087H16.5082V24.3527C16.5082 25.2643 17.6364 26.0049 19.0269 26.0049C20.4174 26.0049 21.5437 25.265 21.5437 24.3527V21.849C22.7319 21.4001 23.5593 20.418 23.5593 19.2755V15.2605C23.5593 14.3731 23.0582 13.5829 22.2823 13.0641L26.4467 12.839C26.4467 12.839 26.6138 12.3079 26.4467 10.8325ZM21.6761 18.4951H17.1307V16.3339H21.6761V18.4951Z" />
<path d="M8.23366 17.6201H8.11816V18.565H8.23366V17.6201Z" />
<path d="M8.23267 16.4023H8.19678V17.3452H8.23267V16.4023Z" />
<path d="M9.76824 4.23355C9.76432 2.42085 8.77901 0.841752 7.31149 0V3.91056L4.88346 5.31217L2.45348 3.90599V0C0.988569 0.841752 0.00130504 2.42085 0 4.23355C0 6.13435 1.08971 7.78131 2.67795 8.58978V8.61066V24.6946C2.67795 25.3315 2.93439 25.9077 3.352 26.3259C3.76896 26.7436 4.34448 26.9974 4.98265 27C6.25115 27 7.28213 25.9703 7.2867 24.6953L7.27691 8.48734C8.76401 7.65081 9.76628 6.05735 9.76824 4.23355ZM5.49031 25.7152C5.14708 26.0597 4.58853 26.0597 4.24269 25.7145C3.90207 25.3726 3.90273 24.8167 4.24595 24.4721C4.59114 24.1289 5.14774 24.1289 5.48835 24.4695C5.83354 24.8147 5.83419 25.3713 5.49031 25.7152Z"/>
</svg>
