<svg width="24" height="24" viewBox="0 0 24 24" fill="none" xmlns="http://www.w3.org/2000/svg">
<path d="M17.4875 0H6.9275C3.34138 0 0.423828 2.9371 0.423828 6.54708V17.1773C0.423828 20.7875 3.34138 23.7244 6.9275 23.7244H17.4875C21.0739 23.7244 23.9914 20.7873 23.9914 17.1773V6.54708C23.9916 2.9371 21.0739 0 17.4875 0ZM21.9005 17.1773C21.9005 19.6268 19.9209 21.6195 17.4876 21.6195H6.9275C4.49437 21.6196 2.51486 19.6268 2.51486 17.1773V6.54708C2.51486 4.09777 4.49437 2.10495 6.9275 2.10495H17.4875C19.9207 2.10495 21.9004 4.09777 21.9004 6.54708V17.1773H21.9005Z"/>
<path d="M12.2075 5.74939C8.85896 5.74939 6.13477 8.49173 6.13477 11.8626C6.13477 15.2334 8.85896 17.9756 12.2075 17.9756C15.5561 17.9756 18.2803 15.2334 18.2803 11.8626C18.2803 8.49173 15.5561 5.74939 12.2075 5.74939ZM12.2075 15.8705C10.0121 15.8705 8.2258 14.0725 8.2258 11.8625C8.2258 9.65227 10.012 7.85421 12.2075 7.85421C14.4031 7.85421 16.1893 9.65227 16.1893 11.8625C16.1893 14.0725 14.403 15.8705 12.2075 15.8705Z"/>
<path d="M18.5354 3.96417C18.1325 3.96417 17.7367 4.12835 17.4522 4.41602C17.1663 4.70229 17.002 5.10082 17.002 5.50777C17.002 5.91345 17.1664 6.31184 17.4522 6.59951C17.7366 6.88577 18.1325 7.05136 18.5354 7.05136C18.9396 7.05136 19.3342 6.88577 19.6199 6.59951C19.9057 6.31184 20.0688 5.91331 20.0688 5.50777C20.0688 5.10082 19.9057 4.70229 19.6199 4.41602C19.3355 4.12835 18.9396 3.96417 18.5354 3.96417Z"/>
</svg>
