<svg width="20" height="20" viewBox="0 0 20 20" fill="none" xmlns="http://www.w3.org/2000/svg">
<path d="M10 20C15.5228 20 20 15.5228 20 10C20 4.47715 15.5228 0 10 0C4.47715 0 0 4.47715 0 10C0 15.5228 4.47715 20 10 20Z" fill="#D73E3E"/>
<path opacity="0.37" d="M19.6028 12.7962L15.1548 5.98744L9.17937 4.89844L5.7726 7.66201L4.99121 14.1936L9.33031 19.977C9.55163 19.9917 9.77467 19.9999 9.99964 19.9999C14.5517 19.9999 18.393 16.958 19.6028 12.7962Z" fill="#D73E3E"/>
<path d="M9.99985 3.46753C6.39197 3.46753 3.46729 6.39225 3.46729 10.0001C3.46729 13.6079 6.39197 16.5326 9.99985 16.5326C13.6077 16.5326 16.5324 13.608 16.5324 10.0001C16.5324 6.39221 13.6077 3.46753 9.99985 3.46753ZM10.4069 13.63H7.74863L10.9053 10.0001L7.74863 6.37015H10.4069L13.5636 10.0001L10.4069 13.63Z" fill="white"/>
</svg>
