<svg width="60" height="28" viewBox="0 0 60 28" fill="none" xmlns="http://www.w3.org/2000/svg">
<path d="M0.903568 12.6608C0.98777 11.6451 1.08227 10.4958 1.26676 9.50397C1.39487 8.8103 1.67656 7.88661 2.62897 7.88661C2.72438 7.88661 2.81996 7.89601 2.91428 7.90577C2.97318 7.91137 3.03209 7.91932 3.12858 7.92113C3.13057 7.92113 3.16146 7.89113 3.20068 7.77712C3.48038 6.97612 4.6536 5.9798 6.15802 4.76123C6.52861 4.46219 6.97221 4.10208 7.16121 3.91633C7.09182 3.43642 7.10212 2.84701 7.43621 2.44082C7.59142 2.25128 7.88342 2.02487 8.38682 2.02487C8.46072 2.02487 8.53932 2.02939 8.71423 2.04493C9.07741 2.04493 9.80523 1.89568 10.8129 1.68735C13.4112 1.15413 18.2476 0.16052 25.4995 0.00422361C36.0587 -0.204834 44.3561 7.41502 44.6981 7.73592L44.9428 7.96323C45.3765 8.17283 46.7459 8.67388 50.9317 9.49674C56.8688 10.6658 58.0014 12.5573 58.2153 13.2887C58.6893 13.6425 59.4568 14.4863 59.5785 15.479C59.6762 16.2706 59.8975 16.5944 59.8975 16.5935L60 16.7256V22.3132L59.9884 22.4151C59.6666 23.8989 58.1288 24.684 55.5413 24.684C54.7161 24.684 54.0971 24.5998 54.1211 24.5998C54.0851 24.5978 53.766 24.5924 53.2131 24.581C53.2697 24.4247 53.3212 24.2666 53.3656 24.1047C53.4086 23.9486 53.448 23.7914 53.4784 23.6304C53.5514 23.2514 53.5924 22.8612 53.5924 22.4608C53.5924 19.027 50.7988 16.2332 47.3649 16.2332C43.9311 16.2332 41.1373 19.027 41.1373 22.4608C41.1373 22.7714 41.1677 23.0726 41.2112 23.3711C41.2351 23.533 41.2627 23.6939 41.2992 23.8511C41.3366 24.0139 41.3758 24.1749 41.4255 24.333C33.649 24.1664 23.7537 23.9465 16.09 23.7538C16.1238 23.5966 16.1453 23.4375 16.1668 23.2765C16.1883 23.1175 16.2005 22.9585 16.2089 22.7976C16.2145 22.6852 16.2257 22.575 16.2257 22.4608C16.2257 19.027 13.4318 16.2332 9.99821 16.2332C6.61299 16.2332 3.85477 18.9502 3.77797 22.3186C3.77797 22.3654 3.77057 22.413 3.77057 22.4608C3.77057 22.5815 3.78177 22.6993 3.78936 22.8191C3.79876 22.9894 3.81556 23.1587 3.83796 23.3253C2.37474 23.0839 1.27435 22.3129 0.637234 21.0657C-0.452682 18.9334 0.102936 16.0462 0.494129 15.4331C0.705357 15.1014 0.810154 13.8046 0.903568 12.6608Z" fill="#D73E3E"/>
<path d="M52.1983 24.5586C51.3866 26.4242 49.5299 27.7293 47.3657 27.7293C45.1239 27.7293 43.2144 26.3268 42.4528 24.3546C42.3924 24.1974 42.3386 24.0364 42.2927 23.8718C42.2488 23.7146 42.2123 23.5536 42.1823 23.3908C42.129 23.0887 42.0954 22.7779 42.0954 22.4601C42.0954 19.5493 44.4541 17.1904 47.3648 17.1904C50.2756 17.1904 52.6343 19.5493 52.6343 22.4601C52.6343 22.8549 52.5875 23.2392 52.5047 23.6098C52.4697 23.7708 52.4276 23.9289 52.3766 24.0832C52.3246 24.2462 52.2651 24.4032 52.1983 24.5586Z" fill="#D73E3E"/>
<path d="M15.11 23.728C14.5412 26.024 12.4714 27.7295 9.9996 27.7295C7.41538 27.7295 5.26987 25.8668 4.82086 23.4125C4.79195 23.2535 4.76954 23.0934 4.75364 22.9297C4.73955 22.7745 4.73016 22.6191 4.73016 22.4601C4.73016 22.4563 4.73016 22.4525 4.73016 22.4478C4.73576 19.5437 7.09357 17.1904 9.9996 17.1904C12.9094 17.1904 15.269 19.5493 15.269 22.4601C15.269 22.5658 15.2587 22.6686 15.2531 22.7734C15.2437 22.9353 15.2278 23.0941 15.2036 23.2515C15.1792 23.4126 15.1474 23.5717 15.11 23.728Z" fill="#D73E3E"/>
</svg>
