<svg width="16" height="19" viewBox="0 0 16 19" fill="none" xmlns="http://www.w3.org/2000/svg">
<path d="M15.9111 3.07823L14.9349 1.12345C14.7306 0.714431 14.2405 0.551929 13.84 0.760669C13.4396 0.969373 13.2807 1.4702 13.4849 1.87926L14.15 3.21097C13.0856 3.57204 12.3154 4.59816 12.3154 5.80529V7.84449C12.3154 8.1889 12.5887 8.46815 12.9259 8.46815H14.3722V10.5573C14.3722 11.4846 13.6338 12.2391 12.7261 12.2391H11.7353V1.53225C11.7352 0.687378 11.0625 0 10.2356 0H3.03797C1.99599 0 1.14826 0.86606 1.14826 1.93062V15.9605C0.490352 16.1226 0 16.7286 0 17.4499V18.3764C0 18.7208 0.273289 19 0.610397 19H12.2732C12.6103 19 12.8836 18.7208 12.8836 18.3764V17.4499C12.8836 16.7286 12.3932 16.1226 11.7353 15.9605V13.902H12.7261C14.5313 13.902 16 12.4015 16 10.5572V3.45611C16 3.32471 15.9695 3.1952 15.9111 3.07823ZM9.15454 6.20878H3.72904C3.44808 6.20878 3.22034 5.97611 3.22034 5.68906V2.6593C3.22034 2.37226 3.44808 2.13958 3.72904 2.13958H9.15454C9.4355 2.13958 9.66324 2.37226 9.66324 2.6593V5.6891C9.66324 5.97611 9.4355 6.20878 9.15454 6.20878Z" fill="#C4C4C4"/>
</svg>
