<svg width="24" height="24" viewBox="0 0 24 24" fill="none" xmlns="http://www.w3.org/2000/svg">
<circle cx="12" cy="12" r="12" fill="#D73E3E"/>
<path d="M13.2962 6.77827L13.2964 10.8921L17.4102 10.8922C18.0221 10.8923 18.5179 11.3881 18.518 12.0001C18.518 12.3058 18.3941 12.5827 18.1938 12.783C17.9932 12.9837 17.7164 13.1077 17.4106 13.1075L13.2962 13.1076L13.2963 17.2218C13.2963 17.5275 13.1724 17.8044 12.9719 18.0049C12.7714 18.2054 12.4948 18.3293 12.1888 18.3293C11.577 18.3293 11.0812 17.8335 11.0809 17.2214L11.0807 13.1077L6.96689 13.1076C6.35501 13.1076 5.85913 12.6117 5.85912 11.9998C5.8593 11.3882 6.35489 10.8926 6.96659 10.8924L11.0808 10.8922L11.0808 6.77815C11.0811 6.16639 11.5768 5.67074 12.1883 5.67062C12.8003 5.67051 13.2962 6.1664 13.2962 6.77827Z" fill="white"/>
</svg>
