<svg width="15" height="15" viewBox="0 0 15 15" fill="none" xmlns="http://www.w3.org/2000/svg">
<rect width="15" height="15" fill="#D73E3E"/>
<path d="M11.662 3.96966L8.63204 6.99993L11.662 10.0301C12.1127 10.4809 12.1127 11.2113 11.662 11.6621C11.4368 11.8873 11.1416 12 10.8465 12C10.5509 12 10.2556 11.8875 10.0306 11.6621L7.00001 8.63165L3.96964 11.6621C3.74448 11.8873 3.44922 12 3.15387 12C2.85861 12 2.56355 11.8875 2.33819 11.6621C1.8875 11.2114 1.8875 10.4811 2.33819 10.03L5.36804 6.9999L2.33802 3.96966C1.88733 3.51896 1.88733 2.78845 2.33802 2.33776C2.78862 1.88741 3.5187 1.88741 3.96947 2.33776L6.99999 5.36804L10.0303 2.33776C10.4811 1.88741 11.2113 1.88741 11.6618 2.33776C12.1127 2.78845 12.1127 3.51896 11.662 3.96966Z" fill="white"/>
</svg>
