<svg width="20" height="15" viewBox="0 0 20 15" fill="none" xmlns="http://www.w3.org/2000/svg">
<path d="M19.714 11.9888L15.1316 0.51645C15.073 0.377234 14.9778 0.256377 14.846 0.153919C14.714 0.0512293 14.5747 0 14.4283 0H10.703C10.7982 0 10.8824 0.0347176 10.9557 0.104268C11.0289 0.17401 11.0692 0.256262 11.0766 0.351484L11.2415 2.46151C11.2488 2.56408 11.2196 2.64833 11.1539 2.71415C11.0878 2.78008 11.0073 2.81299 10.9119 2.81299H9.08778C8.99256 2.81299 8.91208 2.78008 8.84611 2.71415C8.78018 2.64837 8.75089 2.56408 8.75832 2.46151L8.92317 0.351484C8.9304 0.256262 8.97062 0.17401 9.04402 0.104268C9.11727 0.0348331 9.20144 0 9.29678 0H5.57144C5.42495 0 5.28573 0.0512293 5.15383 0.153919C5.02204 0.256262 4.9269 0.377234 4.8682 0.51645L0.285706 11.9888C0.0952225 12.443 0 12.8679 0 13.2636C0 13.7984 0.168468 14.0657 0.505518 14.0657H8.24171C8.14649 14.0657 8.06601 14.031 8 13.9614C7.93407 13.8916 7.90478 13.8094 7.91221 13.714L8.1319 10.9012C8.13922 10.8059 8.17951 10.7235 8.25276 10.6539C8.32597 10.5842 8.4103 10.5497 8.50552 10.5497H11.4944C11.5897 10.5497 11.6738 10.5842 11.7472 10.6539C11.8205 10.7235 11.8608 10.8059 11.8681 10.9012L12.088 13.714C12.0955 13.8094 12.0659 13.8916 12.0002 13.9614C11.9343 14.031 11.8537 14.0657 11.7584 14.0657H19.4944C19.8314 14.0657 20 13.7984 20 13.2636C20 12.868 19.9046 12.4431 19.714 11.9888ZM11.6594 8.13163C11.6665 8.21962 11.6373 8.29283 11.5714 8.35133C11.5057 8.41006 11.4285 8.43932 11.3407 8.43932H8.65932C8.57137 8.43932 8.49432 8.41006 8.42854 8.35133C8.36253 8.29259 8.33328 8.21935 8.34055 8.13163V8.08764L8.60436 4.57141C8.61167 4.47615 8.65197 4.39378 8.72521 4.32416C8.79846 4.25453 8.88275 4.21977 8.97797 4.21977H11.0218C11.1171 4.21977 11.2014 4.25441 11.2746 4.32416C11.3478 4.39378 11.3882 4.47615 11.3956 4.57141L11.6593 8.08764V8.13163H11.6594Z" fill="#C4C4C4"/>
</svg>
