<svg width="47" height="47" viewBox="0 0 47 47" fill="none" xmlns="http://www.w3.org/2000/svg">
<path d="M0 2C0 0.89543 0.89543 0 2 0H45C46.1046 0 47 0.895431 47 2V37C47 38.1046 46.1046 47 45 47H2C0.89543 47 0 38.1046 0 37V2Z" fill="#F8BEBE"/>
<path d="M35.8184 30.929L30.7147 25.8257C32.0832 24.2519 32.9122 22.1984 32.9122 19.9541C32.9122 15.0137 28.8929 11 23.9561 11C19.0146 11 15 15.0184 15 19.9541C15 24.8898 19.0193 28.9082 23.9561 28.9082C26.2009 28.9082 28.2548 28.0794 29.829 26.7104L34.9335 31.8137C35.0546 31.9348 35.2176 32 35.3759 32C35.5343 32 35.6973 31.9395 35.8184 31.8137C36.0605 31.5716 36.0605 31.1712 35.8184 30.929ZM16.2528 19.9541C16.2528 15.7075 19.7086 12.2572 23.9514 12.2572C28.1989 12.2572 31.65 15.7122 31.65 19.9541C31.65 24.196 28.1989 27.6557 23.9514 27.6557C19.7086 27.6557 16.2528 24.2007 16.2528 19.9541Z" fill="white"/>
</svg>
