<svg width="19" height="26" viewBox="0 0 19 26" fill="none" xmlns="http://www.w3.org/2000/svg">
<path d="M2.22968 24.263C2.25845 24.9501 2.82386 25.4923 3.51147 25.4923H15.4881C16.1757 25.4923 16.7412 24.9501 16.7699 24.263L17.6252 6.20752H1.37439L2.22968 24.263ZM12.2091 10.6922C12.2091 10.4045 12.4423 10.1711 12.7302 10.1711H13.5636C13.8513 10.1711 14.0847 10.4044 14.0847 10.6922V21.0077C14.0847 21.2954 13.8514 21.5287 13.5636 21.5287H12.7302C12.4425 21.5287 12.2091 21.2956 12.2091 21.0077V10.6922ZM8.56204 10.6922C8.56204 10.4045 8.79532 10.1711 9.08308 10.1711H9.91653C10.2042 10.1711 10.4376 10.4044 10.4376 10.6922V21.0077C10.4376 21.2954 10.2044 21.5287 9.91653 21.5287H9.08308C8.79538 21.5287 8.56204 21.2956 8.56204 21.0077V10.6922ZM4.91489 10.6922C4.91489 10.4045 5.14817 10.1711 5.43593 10.1711H6.26944C6.55714 10.1711 6.79048 10.4044 6.79048 10.6922V21.0077C6.79048 21.2954 6.5572 21.5287 6.26944 21.5287H5.43593C5.14823 21.5287 4.91489 21.2956 4.91489 21.0077V10.6922Z" fill="#C4C4C4"/>
<path d="M18.1949 1.31324H12.6697V0.268664C12.6697 0.120321 12.5494 0 12.401 0H6.59896C6.45062 0 6.33036 0.120321 6.33036 0.268664V1.31318H0.805056C0.360403 1.31318 0 1.67364 0 2.11829V4.64748H19V2.11836C19 1.6737 18.6396 1.31324 18.1949 1.31324Z" fill="#C4C4C4"/>
</svg>
