<svg width="21" height="21" viewBox="0 0 21 21" fill="none" xmlns="http://www.w3.org/2000/svg">
<circle cx="10.5" cy="10.5" r="10.5" fill="#D73E3E"/>
<g clip-path="url(#clip0)">
<path d="M15.1429 4C14.8865 4 14.6786 4.20787 14.6786 4.46429V6.16031C12.2883 3.84613 8.47457 3.90789 6.16039 6.29819C5.06977 7.42469 4.46135 8.93204 4.46437 10.5C4.46437 10.7564 4.67223 10.9643 4.92866 10.9643C5.18509 10.9643 5.39293 10.7564 5.39293 10.5C5.3935 7.6794 7.68048 5.39329 10.5011 5.39386C11.9336 5.39413 13.3001 5.99603 14.2673 7.05267L12.2105 7.7384C11.9669 7.81945 11.8351 8.08259 11.9162 8.32618C11.9972 8.56977 12.2604 8.70157 12.5039 8.62053L15.2897 7.69197C15.4798 7.62864 15.6079 7.45039 15.6072 7.24998V4.46427C15.6072 4.20787 15.3993 4 15.1429 4Z" fill="white"/>
<path d="M16.0712 10.0356C15.8148 10.0356 15.6069 10.2435 15.6069 10.4999C15.6063 13.3205 13.3193 15.6066 10.4987 15.6061C9.06624 15.6058 7.69974 15.0039 6.73252 13.9473L8.7893 13.2615C9.03289 13.1805 9.16469 12.9173 9.08365 12.6737C9.00261 12.4302 8.73946 12.2984 8.49587 12.3794L5.71016 13.308C5.52 13.3713 5.39195 13.5495 5.39258 13.7499V16.5357C5.39258 16.7921 5.60045 16.9999 5.85687 16.9999C6.1133 16.9999 6.32117 16.7921 6.32117 16.5357V14.8396C8.7115 17.1538 12.5253 17.0921 14.8394 14.7017C15.93 13.5752 16.5385 12.0679 16.5354 10.4999C16.5355 10.2435 16.3276 10.0356 16.0712 10.0356Z" fill="white"/>
</g>
<defs>
<clipPath id="clip0">
<rect x="4" y="4" width="13" height="13" fill="white"/>
</clipPath>
</defs>
</svg>
