<svg width="27" height="20" viewBox="0 0 27 20" xmlns="http://www.w3.org/2000/svg">
<path d="M26.4153 5.83441H24.4351C24.2842 5.83441 24.1393 5.89269 24.0304 5.99699L23.6077 6.40194C22.8952 4.75326 21.873 3.1229 20.4923 1.43501C19.746 0.523005 18.6423 0 17.464 0H9.53597C8.35752 0 7.25379 0.523068 6.50787 1.43508C5.08361 3.17605 4.08174 4.76714 3.38609 6.39612L2.96964 5.99699C2.86077 5.89269 2.71576 5.83441 2.56494 5.83441H0.584848C0.261815 5.83441 0 6.09623 0 6.41926V7.77311C0 8.08182 0.239992 8.33726 0.54808 8.35677L2.58339 8.48496C2.27586 9.38358 2.03574 10.7227 2.03574 12.6112C2.03574 14.2498 2.36303 15.3267 2.93262 16.024V19.1786C2.93262 19.4491 3.15191 19.6683 3.42242 19.6683H5.67533C5.94597 19.6683 6.16532 19.4491 6.16532 19.1786V17.2196H20.8347V19.1786C20.8347 19.4491 21.0541 19.6683 21.3246 19.6683H23.5775C23.848 19.6683 24.0674 19.4491 24.0674 19.1786V16.024C24.6368 15.3267 24.9643 14.2498 24.9643 12.6112C24.9643 10.7227 24.7242 9.38358 24.4167 8.48496L26.452 8.35677C26.76 8.33726 27 8.08182 27 7.77311V6.41926C27 6.09623 26.7383 5.83441 26.4153 5.83441ZM8.17937 2.80243C8.51366 2.39386 9.00815 2.15943 9.53597 2.15943H17.464C17.9918 2.15943 18.4865 2.39386 18.8207 2.80243C19.7866 3.9832 20.5494 5.11318 21.139 6.2388L5.84754 6.24167C6.4242 5.14107 7.19132 4.01015 8.17937 2.80243ZM6.51299 14.824C5.39163 14.824 4.48269 14.4577 4.48269 13.5693C4.48269 12.6808 4.81248 11.9604 5.93377 11.9604C7.05507 11.9604 8.54317 12.6808 8.54317 13.5693C8.54317 14.4577 7.63417 14.824 6.51299 14.824ZM15.6283 14.6388H11.3719C10.7302 14.6388 10.2082 14.1168 10.2082 13.4752C10.2082 13.2952 10.3541 13.1493 10.5342 13.1493H16.466C16.6461 13.1493 16.7919 13.2952 16.7919 13.4752C16.7919 14.1169 16.2699 14.6388 15.6283 14.6388ZM20.4871 14.824C19.3658 14.824 18.4568 14.4577 18.4568 13.5693C18.4568 12.6808 19.9451 11.9604 21.0662 11.9604C22.1875 11.9604 22.5173 12.6808 22.5173 13.5693C22.5173 14.4577 21.6084 14.824 20.4871 14.824Z"/>
</svg>
