<svg width="11" height="21" viewBox="0 0 11 21" fill="none" xmlns="http://www.w3.org/2000/svg">
<path d="M10.0316 0.816939L7.53132 0.812927C4.72234 0.812927 2.90706 2.67534 2.90706 5.55793V7.74569H0.393144C0.175912 7.74569 0 7.92181 0 8.13904V11.3089C0 11.5261 0.176113 11.702 0.393144 11.702H2.90706V19.7005C2.90706 19.9177 3.08297 20.0936 3.3002 20.0936H6.58015C6.79738 20.0936 6.97329 19.9175 6.97329 19.7005V11.702H9.91264C10.1299 11.702 10.3058 11.5261 10.3058 11.3089L10.307 8.13904C10.307 8.03473 10.2655 7.93484 10.1919 7.86103C10.1182 7.78721 10.018 7.74569 9.91365 7.74569H6.97329V5.8911C6.97329 4.99971 7.18571 4.54719 8.34689 4.54719L10.0312 4.54659C10.2482 4.54659 10.4241 4.37048 10.4241 4.15344V1.21008C10.4241 0.993252 10.2484 0.81734 10.0316 0.816939Z" fill="#D73E3E"/>
</svg>
