<svg width="30" height="20" viewBox="0 0 30 20" fill="none" xmlns="http://www.w3.org/2000/svg">
<path d="M27.8392 2.64718C27.077 1.31125 26.2498 1.06552 24.5656 0.972071C22.8831 0.859589 18.6523 0.812866 14.987 0.812866C11.3147 0.812866 7.08219 0.85959 5.40147 0.970341C3.72075 1.06552 2.8918 1.30952 2.12257 2.64718C1.33753 3.98139 0.933594 6.27948 0.933594 10.3254C0.933594 10.3288 0.933594 10.3306 0.933594 10.3306C0.933594 10.334 0.933594 10.3357 0.933594 10.3357V10.3392C0.933594 14.3678 1.33753 16.6832 2.12257 18.0035C2.8918 19.3395 3.71899 19.5817 5.39971 19.6942C7.08219 19.7911 11.3147 19.8482 14.987 19.8482C18.6523 19.8482 22.8831 19.7911 24.5673 19.696C26.2515 19.5835 27.0787 19.3412 27.8409 18.0053C28.633 16.6849 29.0334 14.3695 29.0334 10.3409C29.0334 10.3409 29.0334 10.3357 29.0334 10.3323C29.0334 10.3323 29.0334 10.3288 29.0334 10.3271C29.0334 6.27948 28.633 3.98139 27.8392 2.64718ZM11.471 15.522V5.13909L20.2522 10.3306L11.471 15.522Z"/>
</svg>
