<svg width="27" height="21" viewBox="0 0 27 21" xmlns="http://www.w3.org/2000/svg">
<path d="M25.6077 0.642497C25.1793 0.21415 24.6644 0 24.0629 0H2.18752C1.58596 0 1.07113 0.214102 0.642498 0.642497C0.214102 1.07094 0 1.58577 0 2.18737V18.8124C0 19.4141 0.214102 19.929 0.642498 20.3574C1.07113 20.7858 1.58596 21 2.18752 21H24.0629C24.6644 21 25.1793 20.7858 25.6077 20.3574C26.036 19.9291 26.2504 19.4142 26.2504 18.8124V2.18737C26.2504 1.58577 26.036 1.07094 25.6077 0.642497ZM24.5002 18.8127C24.5002 18.9314 24.457 19.0336 24.3704 19.1205C24.2838 19.2067 24.1813 19.2499 24.0629 19.2499H2.18752C2.06909 19.2499 1.96652 19.2067 1.87994 19.1202C1.79341 19.0333 1.75007 18.931 1.75007 18.8124V10.5H24.5002V18.8127H24.5002ZM24.5002 5.24974H1.75002V2.18718C1.75002 2.06871 1.79322 1.96638 1.87989 1.87961C1.96652 1.79327 2.06909 1.74993 2.18747 1.74993H24.0629C24.1812 1.74993 24.2838 1.79307 24.3703 1.87961C24.4569 1.96638 24.5001 2.06871 24.5001 2.18718V5.24974H24.5002Z"/>
</svg>
