<svg width="21" height="17" viewBox="0 0 21 17" fill="none" xmlns="http://www.w3.org/2000/svg">
<path d="M20.934 2.54401C20.1924 2.86931 19.4022 3.08493 18.5784 3.18962C19.4259 2.6836 20.0728 1.88842 20.3769 0.929967C19.5867 1.40109 18.7142 1.73387 17.7844 1.91958C17.0341 1.12066 15.9648 0.625854 14.7982 0.625854C12.5348 0.625854 10.7126 2.46299 10.7126 4.71517C10.7126 5.03923 10.74 5.35082 10.8073 5.64745C7.40847 5.48169 4.40099 3.85269 2.38064 1.37118C2.02792 1.98314 1.82102 2.6836 1.82102 3.43765C1.82102 4.85352 2.55014 6.10861 3.63697 6.83524C2.98014 6.82277 2.33577 6.63208 1.78986 6.33171C1.78986 6.34417 1.78986 6.36037 1.78986 6.37658C1.78986 8.36328 3.20698 10.0135 5.0653 10.3936C4.73252 10.4846 4.36983 10.5282 3.99343 10.5282C3.73169 10.5282 3.46747 10.5133 3.21944 10.4584C3.74914 12.0774 5.25226 13.2677 7.03954 13.3064C5.6486 14.3944 3.8825 15.05 1.97058 15.05C1.63531 15.05 1.31375 15.0351 0.992188 14.9939C2.80315 16.1618 4.94939 16.8286 7.26389 16.8286C14.7869 16.8286 18.8999 10.5968 18.8999 5.19502C18.8999 5.0143 18.8937 4.83981 18.885 4.66657C19.6964 4.09075 20.3781 3.37159 20.934 2.54401Z" fill="#D73E3E"/>
</svg>
