<svg width="19" height="19" viewBox="0 0 19 19" fill="none" xmlns="http://www.w3.org/2000/svg">
<path d="M6.86424 10.4822C6.86424 10.2442 6.66681 10.0514 6.42321 10.0514H4.88416C4.64083 10.0514 4.44336 10.2442 4.44336 10.4822V11.987C4.44336 12.2253 4.64083 12.4182 4.88416 12.4182H6.42321C6.66681 12.4182 6.86424 12.2253 6.86424 11.987V10.4822Z" fill="#C4C4C4"/>
<path d="M10.7107 10.4822C10.7107 10.2442 10.5132 10.0514 10.2701 10.0514H8.73084C8.48751 10.0514 8.29004 10.2442 8.29004 10.4822V11.987C8.29004 12.2253 8.48751 12.4182 8.73084 12.4182H10.2701C10.5132 12.4182 10.7107 12.2253 10.7107 11.987V10.4822Z" fill="#C4C4C4"/>
<path d="M14.5566 10.4822C14.5566 10.2442 14.3592 10.0514 14.1158 10.0514H12.5768C12.3332 10.0514 12.1357 10.2442 12.1357 10.4822V11.987C12.1357 12.2253 12.3332 12.4182 12.5768 12.4182H14.1158C14.3592 12.4182 14.5566 12.2253 14.5566 11.987V10.4822Z" fill="#C4C4C4"/>
<path d="M6.86424 14.2436C6.86424 14.0052 6.66681 13.8125 6.42321 13.8125H4.88416C4.64083 13.8125 4.44336 14.0052 4.44336 14.2436V15.748C4.44336 15.9862 4.64083 16.179 4.88416 16.179H6.42321C6.66681 16.179 6.86424 15.9862 6.86424 15.748V14.2436Z" fill="#C4C4C4"/>
<path d="M10.7107 14.2436C10.7107 14.0052 10.5132 13.8125 10.2701 13.8125H8.73084C8.48751 13.8125 8.29004 14.0052 8.29004 14.2436V15.748C8.29004 15.9862 8.48751 16.179 8.73084 16.179H10.2701C10.5132 16.179 10.7107 15.9862 10.7107 15.748V14.2436Z" fill="#C4C4C4"/>
<path d="M14.5566 14.2436C14.5566 14.0052 14.3592 13.8125 14.116 13.8125H12.5768C12.3332 13.8125 12.1357 14.0052 12.1357 14.2436V15.748C12.1357 15.9862 12.3332 16.179 12.5768 16.179H14.116C14.3592 16.179 14.5566 15.9862 14.5566 15.748V14.2436Z" fill="#C4C4C4"/>
<path d="M17.3088 2.11555V4.41391C17.3088 5.45274 16.447 6.28988 15.3847 6.28988H14.171C13.1087 6.28988 12.2354 5.45274 12.2354 4.41391V2.1073H6.76462V4.41391C6.76462 5.45274 5.89138 6.28988 4.82923 6.28988H3.61523C2.55304 6.28988 1.69122 5.45274 1.69122 4.41391V2.11555C0.762858 2.14291 0 2.89407 0 3.81735V17.2868C0 18.2274 0.779695 19 1.74166 19H17.2583C18.2189 19 19 18.2258 19 17.2868V3.81735C19 2.89407 18.2372 2.14291 17.3088 2.11555ZM16.7451 16.448C16.7451 16.8545 16.408 17.1843 15.9921 17.1843H2.97473C2.55885 17.1843 2.22178 16.8545 2.22178 16.448V9.49057C2.22178 9.08391 2.55881 8.75412 2.97473 8.75412H15.9921C16.408 8.75412 16.745 9.08391 16.745 9.49057L16.7451 16.448Z" fill="#C4C4C4"/>
<path d="M3.61105 5.05775H4.81165C5.17606 5.05775 5.47153 4.76926 5.47153 4.41292V0.645058C5.47153 0.288686 5.17606 0 4.81165 0H3.61105C3.2466 0 2.95117 0.288686 2.95117 0.645058V4.41292C2.95117 4.76926 3.2466 5.05775 3.61105 5.05775Z" fill="#C4C4C4"/>
<path d="M14.1559 5.05775H15.3565C15.7207 5.05775 16.0162 4.76926 16.0162 4.41292V0.645058C16.0162 0.288686 15.7207 0 15.3565 0H14.1559C13.7916 0 13.4961 0.288686 13.4961 0.645058V4.41292C13.4961 4.76926 13.7916 5.05775 14.1559 5.05775Z" fill="#C4C4C4"/>
</svg>
