<svg width="14" height="14" viewBox="0 0 14 14" fill="none" xmlns="http://www.w3.org/2000/svg">
<path d="M0 1C0 0.447716 0.447715 0 1 0H13C13.5523 0 14 0.447715 14 1V13C14 13.5523 13.5523 14 13 14H1C0.447716 14 0 13.5523 0 13V1Z" fill="#C4C4C4"/>
<path d="M11.1412 4.34845L8.49005 6.99994L11.1412 9.65131C11.5356 10.0458 11.5356 10.6849 11.1412 11.0794C10.9442 11.2764 10.6859 11.375 10.4277 11.375C10.169 11.375 9.91069 11.2766 9.7138 11.0794L7.06202 8.4277L4.41045 11.0793C4.21344 11.2764 3.95508 11.375 3.69665 11.375C3.43829 11.375 3.18012 11.2765 2.98293 11.0793C2.58857 10.685 2.58857 10.0459 2.98293 9.65128L5.63405 6.99991L2.98278 4.34845C2.58842 3.95409 2.58842 3.3149 2.98278 2.92054C3.37705 2.52649 4.01587 2.52649 4.4103 2.92054L7.062 5.57203L9.7135 2.92054C10.108 2.52649 10.7469 2.52649 11.1411 2.92054C11.5356 3.3149 11.5356 3.95409 11.1412 4.34845Z" fill="white"/>
</svg>
