<svg width="30" height="30" viewBox="0 0 30 30"  xmlns="http://www.w3.org/2000/svg">
<circle cx="15" cy="15" r="15" />
<path d="M12.4185 23.1057C12.9114 24.2202 14.027 25.0001 15.322 25.0001C16.6169 25.0001 17.7325 24.2202 18.2255 23.1057H12.4185Z" />
<path d="M15.3218 6.00635C16.1764 6.00635 16.9969 6.15712 17.7583 6.43316V6.33937C17.7583 5.04943 16.7089 4 15.419 4H15.2251C13.9352 4 12.8857 5.04943 12.8857 6.33937V6.43197C13.6468 6.15675 14.467 6.00635 15.3218 6.00635Z"/>
<path d="M23.0116 21.873H7.6325C7.34155 21.873 7.07504 21.6768 7.01452 21.3921C6.95462 21.1104 7.08305 20.8322 7.3436 20.7118C7.40543 20.6717 7.87082 20.3463 8.33675 19.3618C9.19247 17.5537 9.37209 15.0067 9.37209 13.1885C9.37209 9.90775 12.0412 7.23877 15.3218 7.23877C18.5947 7.23877 21.2589 9.89489 21.2715 13.1648C21.2718 13.1727 21.272 13.1806 21.272 13.1885C21.272 15.0067 21.4516 17.5537 22.3073 19.3618C22.7732 20.3463 23.2386 20.6718 23.3005 20.7118C23.561 20.8322 23.6895 21.1103 23.6295 21.3921C23.569 21.6767 23.3026 21.873 23.0116 21.873ZM23.3074 20.7162H23.3078H23.3074Z" />
</svg>
